<?xml version="1.0" encoding="UTF-8" standalone="no"?>
<svg
   id="svg6860"
   height="32"
   width="32"
   version="1.1"
   xml:space="preserve"
   xmlns:xlink="http://www.w3.org/1999/xlink"
   xmlns="http://www.w3.org/2000/svg"
   xmlns:svg="http://www.w3.org/2000/svg"
   xmlns:rdf="http://www.w3.org/1999/02/22-rdf-syntax-ns#"
   xmlns:cc="http://creativecommons.org/ns#"
   xmlns:dc="http://purl.org/dc/elements/1.1/"><defs
     id="defs6862"><linearGradient
       id="linearGradient3688-166-749-6"><stop
         offset="0"
         style="stop-color:#181818;stop-opacity:1"
         id="stop2883-8" /><stop
         offset="1"
         style="stop-color:#181818;stop-opacity:0"
         id="stop2885-3" /></linearGradient><linearGradient
       id="linearGradient3702-501-757-3"><stop
         offset="0"
         style="stop-color:#181818;stop-opacity:0"
         id="stop2895-3" /><stop
         offset="0.5"
         style="stop-color:#181818;stop-opacity:1"
         id="stop2897-28" /><stop
         offset="1"
         style="stop-color:#181818;stop-opacity:0"
         id="stop2899-8" /></linearGradient><linearGradient
       xlink:href="#linearGradient3702-501-757-3"
       id="linearGradient5014"
       gradientUnits="userSpaceOnUse"
       x1="25.058096"
       y1="47.027729"
       x2="25.058096"
       y2="39.999443" /><linearGradient
       xlink:href="#linearGradient947"
       id="linearGradient930-9-2"
       x1="16.767664"
       y1="2.7676599"
       x2="16.767664"
       y2="29.896721"
       gradientUnits="userSpaceOnUse"
       gradientTransform="translate(5.3586182e-6)" /><linearGradient
       x1="23.99999"
       y1="6.2399855"
       x2="23.99999"
       y2="41.759987"
       id="linearGradient4161-0-2"
       xlink:href="#linearGradient3924-0-6"
       gradientUnits="userSpaceOnUse"
       gradientTransform="matrix(0.67567568,0,0,0.67567568,-0.2162164,-0.2162058)" /><linearGradient
       id="linearGradient3924-0-6"><stop
         id="stop3926-6-2"
         style="stop-color:#ffffff;stop-opacity:1"
         offset="0" /><stop
         id="stop3928-3-6"
         style="stop-color:#ffffff;stop-opacity:0.23529412"
         offset="0.04166666" /><stop
         id="stop3930-2-1"
         style="stop-color:#ffffff;stop-opacity:0.15686275"
         offset="0.95833325" /><stop
         id="stop3932-62-8"
         style="stop-color:#ffffff;stop-opacity:0.39215687"
         offset="1" /></linearGradient><radialGradient
       gradientTransform="matrix(2.003784,0,0,1.4,27.98813,-17.4)"
       gradientUnits="userSpaceOnUse"
       xlink:href="#linearGradient3688-166-749-6"
       id="radialGradient3163"
       fy="43.5"
       fx="4.9929786"
       r="2.5"
       cy="43.5"
       cx="4.9929786" /><radialGradient
       gradientTransform="matrix(2.003784,0,0,1.4,-20.01187,-104.4)"
       gradientUnits="userSpaceOnUse"
       xlink:href="#linearGradient3688-166-749-6"
       id="radialGradient3165"
       fy="43.5"
       fx="4.9929786"
       r="2.5"
       cy="43.5"
       cx="4.9929786" /><linearGradient
       id="linearGradient947"><stop
         id="stop943"
         style="stop-color:#64baff;stop-opacity:1"
         offset="0" /><stop
         id="stop945"
         style="stop-color:#3689e6;stop-opacity:1"
         offset="1" /></linearGradient></defs><metadata
     id="metadata6865"><rdf:RDF><cc:Work
         rdf:about=""><dc:format>image/svg+xml</dc:format><dc:type
           rdf:resource="http://purl.org/dc/dcmitype/StillImage" /></cc:Work></rdf:RDF></metadata><g
     style="opacity:0.4"
     id="g3712"
     transform="matrix(0.73684208,0,0,0.57142853,-1.6842104,4.1428588)"><rect
       style="fill:url(#radialGradient3163);fill-opacity:1;stroke:none"
       id="rect2801"
       y="40"
       x="38"
       height="7"
       width="5" /><rect
       style="fill:url(#radialGradient3165);fill-opacity:1;stroke:none"
       id="rect3696"
       transform="scale(-1)"
       y="-47"
       x="-10"
       height="7"
       width="5" /><rect
       style="fill:url(#linearGradient5014);fill-opacity:1;stroke:none"
       id="rect3700"
       y="40"
       x="10"
       height="7.0000005"
       width="28" /></g><rect
     style="color:#000000;font-variation-settings:normal;display:inline;overflow:visible;visibility:visible;fill:url(#linearGradient930-9-2);fill-opacity:1;fill-rule:nonzero;stroke:#002e99;stroke-width:1;stroke-linecap:butt;stroke-linejoin:miter;stroke-miterlimit:4;stroke-dasharray:none;stroke-dashoffset:0;stroke-opacity:0.5;marker:none;enable-background:accumulate;stop-color:#000000"
     id="rect5505-21-1-2-1"
     y="2.5"
     x="2.5"
     ry="3"
     rx="3"
     height="27.000008"
     width="27.000008" /><rect
     style="display:inline;opacity:0.35;fill:none;stroke:url(#linearGradient4161-0-2);stroke-width:1;stroke-linecap:round;stroke-linejoin:round;stroke-miterlimit:4;stroke-dasharray:none;stroke-dashoffset:0;stroke-opacity:1"
     id="rect6741-7-4-3-8"
     y="3.5"
     x="3.5"
     ry="2"
     rx="2"
     height="25"
     width="25" /><g
     style="color:#000000;font-variation-settings:normal;clip-rule:nonzero;display:inline;overflow:visible;visibility:visible;opacity:0.15;isolation:auto;mix-blend-mode:normal;color-interpolation:sRGB;color-interpolation-filters:linearRGB;solid-color:#000000;solid-opacity:1;vector-effect:none;fill:#002e99;fill-opacity:1;fill-rule:nonzero;stroke:none;stroke-width:0.777778;stroke-linecap:butt;stroke-linejoin:miter;stroke-miterlimit:4;stroke-dasharray:none;stroke-dashoffset:0;stroke-opacity:1;marker:none;color-rendering:auto;image-rendering:auto;shape-rendering:auto;text-rendering:auto;enable-background:accumulate"
     id="layer1-4-1-2-5"
     transform="matrix(1.2857143,0,0,1.2857143,5.9171428,6.7142857)"><path
       style="color:#000000;font-variation-settings:normal;clip-rule:nonzero;display:inline;overflow:visible;visibility:visible;isolation:auto;mix-blend-mode:normal;color-interpolation:sRGB;color-interpolation-filters:linearRGB;solid-color:#000000;solid-opacity:1;vector-effect:none;fill:#002e99;fill-opacity:1;fill-rule:nonzero;stroke:none;stroke-width:0.777778;stroke-linecap:butt;stroke-linejoin:miter;stroke-miterlimit:4;stroke-dasharray:none;stroke-dashoffset:0;stroke-opacity:1;marker:none;color-rendering:auto;image-rendering:auto;shape-rendering:auto;text-rendering:auto;enable-background:accumulate"
       id="path3499"
       d="m 7.5097656,0.2265625 c -0.3462601,0 -0.7031901,0.16787958 -0.9160156,0.41992188 C 6.3809245,0.89852667 6.2942683,1.2021411 6.2910156,1.4921875 a 0.77422636,0.77422636 0 0 0 0,0.00781 V 4.7070287 L 5.8007812,4.2929688 C 5.1758032,3.7467522 4.1957771,3.8661533 3.6777344,4.4589844 3.1340658,5.0811608 3.1783982,6.0591718 3.8125,6.6132812 L 5.3964844,8 3.8125,9.3867188 C 3.1783763,9.9408291 3.134057,10.918833 3.6777344,11.541016 c 0.5180697,0.592877 1.4980854,0.712119 2.1230468,0.166015 L 6.2910156,11.292969 V 14.5 c 0,0.295298 0.088534,0.603088 0.3027344,0.855469 0.2142005,0.25238 0.5697717,0.417969 0.9160156,0.417969 0.3181095,0 0.7910133,-0.0897 1.1269532,-0.347657 a 0.77422636,0.77422636 0 0 0 0.044922,-0.03516 l 3.5292972,-3.15625 c 0.264304,-0.235123 0.385197,-0.508585 0.451171,-0.746094 0.01436,-0.0519 0.04653,-0.156353 0.05664,-0.310547 0.0069,-0.09053 0.0043,-0.172447 0,-0.232422 a 0.77422636,0.77422636 0 0 0 -0.002,-0.03125 c -0.0074,-0.06587 -0.02558,-0.173879 -0.0625,-0.292968 -0.06471,-0.222105 -0.175011,-0.496492 -0.447266,-0.7343752 L 10.056641,8 12.207031,6.1132812 c 0.272187,-0.2378402 0.382543,-0.5120683 0.447266,-0.734375 0.03654,-0.1178211 0.055,-0.2255822 0.0625,-0.2949218 a 0.77422636,0.77422636 0 0 0 0.002,-0.029297 c 0.0043,-0.059994 0.0069,-0.1418696 0,-0.2324219 C 12.70849,4.66988 12.676713,4.5644913 12.662109,4.5117188 12.596135,4.2742012 12.475258,4.0007499 12.210938,3.765625 L 8.6816406,0.609375 A 0.77422636,0.77422636 0 0 0 8.6523438,0.5859375 C 8.2607006,0.26957617 7.7983808,0.2265625 7.5097656,0.2265625 Z M 8.6152344,4.6582031 8.9160156,4.921875 8.6152344,5.1738281 Z m 0,6.1679689 0.3007812,0.251953 -0.3007812,0.263672 z" /></g><g
     style="color:#000000;clip-rule:nonzero;display:inline;overflow:visible;visibility:visible;opacity:0.3;isolation:auto;mix-blend-mode:normal;color-interpolation:sRGB;color-interpolation-filters:linearRGB;solid-color:#000000;solid-opacity:1;fill:#002e99;fill-opacity:1;fill-rule:nonzero;stroke:none;stroke-width:0.777778;stroke-linecap:butt;stroke-linejoin:miter;stroke-miterlimit:4;stroke-dasharray:none;stroke-dashoffset:0;stroke-opacity:1;marker:none;color-rendering:auto;image-rendering:auto;shape-rendering:auto;text-rendering:auto;enable-background:accumulate"
     id="layer1-4-1-2"
     transform="matrix(1.2857143,0,0,1.2857143,5.9171428,6.7142855)"><path
       style="color:#000000;clip-rule:nonzero;display:inline;overflow:visible;visibility:visible;isolation:auto;mix-blend-mode:normal;color-interpolation:sRGB;color-interpolation-filters:linearRGB;solid-color:#000000;solid-opacity:1;fill:#002e99;fill-opacity:1;fill-rule:nonzero;stroke:none;stroke-width:0.777778;stroke-linecap:butt;stroke-linejoin:miter;stroke-miterlimit:4;stroke-dasharray:none;stroke-dashoffset:0;stroke-opacity:1;marker:none;color-rendering:auto;image-rendering:auto;shape-rendering:auto;text-rendering:auto;enable-background:accumulate"
       id="rect6885-0-7"
       d="m 7.5097742,1 c -0.277,0 -0.4422236,0.2230174 -0.4453298,0.5 v 4.875 l -1.7734202,-1.5 c -0.31288,-0.27345 -0.75785,-0.21912 -1.03125,0.09375 -0.2734,0.31288 -0.25038,0.78909 0.0625,1.0625 l 2.25,1.96875 -2.25,1.96875 c -0.31288,0.273401 -0.3359,0.749622 -0.0625,1.0625 0.2734,0.312878 0.71837,0.367151 1.03125,0.09375 l 1.7734202,-1.5 V 14.5 c 0,0.277 0.1683298,0.5 0.4453298,0.5 0.28242,0 0.4375,-0.01953 0.65625,-0.1875 l 3.5312498,-3.15625 c 0.11231,-0.09991 0.18145,-0.24072 0.21875,-0.375 0.0142,-0.05132 0.0283,-0.10335 0.0312,-0.15625 0.004,-0.042 0.003,-0.083 0,-0.125 -0.006,-0.05361 -0.0136,-0.10455 -0.0312,-0.15625 -0.0385,-0.13396 -0.10556,-0.2761 -0.21875,-0.375 L 8.8847742,8 11.697274,5.53125 c 0.11319,-0.098907 0.18028,-0.2410493 0.21875,-0.375 0.0176,-0.051747 0.0254,-0.102645 0.0312,-0.15625 0.003,-0.041989 0.004,-0.083009 0,-0.125 -0.003,-0.052913 -0.017,-0.1049375 -0.0312,-0.15625 -0.0373,-0.1342859 -0.10644,-0.2750953 -0.21875,-0.375 L 8.1660242,1.1875 C 7.9667342,1.0265176 7.7385742,1 7.5097742,1 Z M 7.8422222,2.9444435 10.103524,4.9375 7.8422222,6.8333323 Z m 0,6.2222221 2.2613018,1.8958344 -2.2613018,1.993054 z" /></g><g
     style="fill:#ffffff"
     id="layer1-4-1"
     transform="matrix(1.2857143,0,0,1.2857143,5.9171428,5.7142869)"><path
       style="color:#bebebe;display:inline;overflow:visible;visibility:visible;fill:#ffffff;fill-opacity:1;fill-rule:nonzero;stroke:none;stroke-width:1.82311;marker:none;enable-background:accumulate"
       id="rect6885-0"
       d="m 7.5097742,1 c -0.277,0 -0.4422236,0.2230174 -0.4453298,0.5 v 4.875 l -1.7734202,-1.5 c -0.31288,-0.27345 -0.75785,-0.21912 -1.03125,0.09375 -0.2734,0.31288 -0.25038,0.78909 0.0625,1.0625 l 2.25,1.96875 -2.25,1.96875 c -0.31288,0.273401 -0.3359,0.749622 -0.0625,1.0625 0.2734,0.312878 0.71837,0.367151 1.03125,0.09375 l 1.7734202,-1.5 V 14.5 c 0,0.277 0.1683298,0.5 0.4453298,0.5 0.28242,0 0.4375,-0.01953 0.65625,-0.1875 l 3.5312498,-3.15625 c 0.11231,-0.09991 0.18145,-0.24072 0.21875,-0.375 0.0142,-0.05132 0.0283,-0.10335 0.0312,-0.15625 0.004,-0.042 0.003,-0.083 0,-0.125 -0.006,-0.05361 -0.0136,-0.10455 -0.0312,-0.15625 -0.0385,-0.13396 -0.10556,-0.2761 -0.21875,-0.375 L 8.8847742,8 11.697274,5.53125 c 0.11319,-0.098907 0.18028,-0.2410493 0.21875,-0.375 0.0176,-0.051747 0.0254,-0.102645 0.0312,-0.15625 0.003,-0.041989 0.004,-0.083009 0,-0.125 -0.003,-0.052913 -0.017,-0.1049375 -0.0312,-0.15625 -0.0373,-0.1342859 -0.10644,-0.2750953 -0.21875,-0.375 L 8.1660242,1.1875 C 7.9667342,1.0265176 7.7385742,1 7.5097742,1 Z M 7.8422222,2.9444435 10.103524,4.9375 7.8422222,6.8333323 Z m 0,6.2222221 2.2613018,1.8958344 -2.2613018,1.993054 z" /></g><path
     id="rect6885-0-0"
     style="color:#bebebe;font-variation-settings:normal;display:inline;overflow:visible;visibility:visible;opacity:0.07;vector-effect:none;fill:#002e99;fill-opacity:1;fill-rule:nonzero;stroke:none;stroke-width:1;stroke-linecap:butt;stroke-linejoin:miter;stroke-miterlimit:4;stroke-dasharray:none;stroke-dashoffset:0;stroke-opacity:1;-inkscape-stroke:none;marker:none;enable-background:accumulate;stop-color:#000000"
     d="M 20.873047,11.222656 18.847656,13 l 0.955078,0.837891 1.154297,-1.011719 c 0.14553,-0.127166 0.231789,-0.310199 0.28125,-0.482422 0.02263,-0.06653 0.0316,-0.132251 0.03906,-0.201172 0.0039,-0.05399 0.0051,-0.106167 0,-0.160156 -0.0039,-0.06803 -0.0208,-0.135199 -0.03906,-0.201172 -0.04796,-0.172653 -0.136851,-0.353973 -0.28125,-0.482422 z m -9.257813,0.691406 c -0.07944,0.05164 -0.154355,0.113528 -0.220703,0.189454 -0.351513,0.402273 -0.322198,1.013707 0.08008,1.365234 L 11.896484,13.837891 12.855469,13 Z m 2.390625,5.320313 -0.630859,0.53125 c -0.428722,0.374626 -0.986543,0.504678 -1.515625,0.429687 l -0.384766,0.335938 c -0.402274,0.351516 -0.431589,0.962963 -0.08008,1.365234 0.351515,0.402271 0.923899,0.47261 1.326172,0.121094 l 1.285156,-1.08789 z m 6.873047,1.871094 -3.798828,3.396484 c -0.01897,0.01569 -0.03851,0.03068 -0.05859,0.04492 -0.431922,0.331659 -1.040221,0.447266 -1.449218,0.447266 -0.194163,0 -0.389617,-0.04264 -0.572266,-0.115235 v 1.478516 C 15,24.713565 15.216123,25 15.572266,25 c 0.36311,0 0.5625,-0.02427 0.84375,-0.240234 l 4.541015,-4.058594 c 0.144399,-0.128456 0.233293,-0.309776 0.28125,-0.482422 0.01826,-0.06598 0.03533,-0.133157 0.03906,-0.201172 0.0051,-0.054 0.0039,-0.106156 0,-0.160156 -0.0077,-0.06893 -0.01643,-0.1347 -0.03906,-0.201172 -0.0495,-0.172234 -0.13572,-0.355264 -0.28125,-0.482422 z" /><path
     id="rect6885-0-6"
     style="color:#bebebe;display:inline;overflow:visible;visibility:visible;fill:#002e99;fill-opacity:1;fill-rule:nonzero;stroke:none;stroke-width:1.0000003;marker:none;enable-background:accumulate;font-variation-settings:normal;opacity:0.15;vector-effect:none;stroke-linecap:butt;stroke-linejoin:miter;stroke-miterlimit:4;stroke-dasharray:none;stroke-dashoffset:0;stroke-opacity:1;-inkscape-stroke:none;stop-color:#000000;stop-opacity:1"
     d="M 16 8.5 L 16 9.5 L 18.326172 11.550781 L 18.908203 11.0625 L 16 8.5 z M 21.152344 11.5625 C 21.103503 11.660303 21.041091 11.752719 20.957031 11.826172 L 17.339844 15 L 17.910156 15.5 L 20.957031 12.826172 C 21.102561 12.699006 21.18882 12.515973 21.238281 12.34375 C 21.260911 12.27722 21.269884 12.211499 21.277344 12.142578 C 21.281244 12.088588 21.282444 12.036411 21.277344 11.982422 C 21.273444 11.914392 21.256541 11.847223 21.238281 11.78125 C 21.218024 11.708324 21.188305 11.633824 21.152344 11.5625 z M 11.291016 12.244141 C 11.054132 12.637965 11.117194 13.156425 11.474609 13.46875 L 13.794922 15.5 L 14.367188 15 L 11.474609 12.46875 C 11.398828 12.402529 11.34029 12.325722 11.291016 12.244141 z M 16 16.5 L 16 17.5 L 18.326172 19.449219 L 18.908203 18.9375 L 16 16.5 z M 15 17.089844 L 12.720703 19.017578 C 12.31843 19.369094 11.746046 19.298756 11.394531 18.896484 C 11.355331 18.851624 11.320748 18.805291 11.291016 18.755859 C 11.078726 19.107336 11.109238 19.569994 11.394531 19.896484 C 11.746046 20.298755 12.31843 20.369094 12.720703 20.017578 L 15 18.089844 L 15 17.089844 z M 21.152344 19.4375 C 21.103167 19.535035 21.040438 19.626974 20.957031 19.701172 L 16.416016 23.759766 C 16.134766 23.975726 15.935376 24 15.572266 24 C 15.216123 24 15 23.713565 15 23.357422 L 15 24.357422 C 15 24.713565 15.216123 25 15.572266 25 C 15.935376 25 16.134766 24.975726 16.416016 24.759766 L 20.957031 20.701172 C 21.10143 20.572716 21.190324 20.391396 21.238281 20.21875 C 21.256541 20.15277 21.273614 20.085593 21.277344 20.017578 C 21.282444 19.963578 21.281244 19.911422 21.277344 19.857422 C 21.269644 19.788492 21.260911 19.722722 21.238281 19.65625 C 21.217373 19.583501 21.188057 19.50902 21.152344 19.4375 z " /></svg>
