<?xml version="1.0" encoding="UTF-8" standalone="no"?>
<svg
   version="1.1"
   id="svg4332"
   height="64px"
   width="64px"
   xml:space="preserve"
   xmlns:xlink="http://www.w3.org/1999/xlink"
   xmlns="http://www.w3.org/2000/svg"
   xmlns:svg="http://www.w3.org/2000/svg"
   xmlns:rdf="http://www.w3.org/1999/02/22-rdf-syntax-ns#"
   xmlns:cc="http://creativecommons.org/ns#"
   xmlns:dc="http://purl.org/dc/elements/1.1/"><defs
     id="defs4334"><linearGradient
       y2="42.091705"
       x2="23.99999"
       y1="5.9093657"
       x1="23.99999"
       gradientTransform="matrix(1.4324324,0,0,1.4362832,-2.3783747,-2.4707827)"
       gradientUnits="userSpaceOnUse"
       id="linearGradient3904"
       xlink:href="#linearGradient4270" /><linearGradient
       id="linearGradient4270"><stop
         id="stop4272"
         style="stop-color:#ffffff;stop-opacity:1"
         offset="0" /><stop
         id="stop4274"
         style="stop-color:#ffffff;stop-opacity:0.23529412"
         offset="0.0348749" /><stop
         id="stop4276"
         style="stop-color:#ffffff;stop-opacity:0.15686275"
         offset="0.96216321" /><stop
         id="stop4278"
         style="stop-color:#ffffff;stop-opacity:0.39215687"
         offset="1" /></linearGradient><linearGradient
       id="linearGradient3688-166-749-654"><stop
         offset="0"
         style="stop-color:#181818;stop-opacity:1"
         id="stop3088" /><stop
         offset="1"
         style="stop-color:#181818;stop-opacity:0"
         id="stop3090" /></linearGradient><linearGradient
       id="linearGradient3702-501-757-795"><stop
         offset="0"
         style="stop-color:#181818;stop-opacity:0"
         id="stop3100" /><stop
         offset="0.5"
         style="stop-color:#181818;stop-opacity:1"
         id="stop3102" /><stop
         offset="1"
         style="stop-color:#181818;stop-opacity:0"
         id="stop3104" /></linearGradient><radialGradient
       cx="4.9929786"
       cy="43.5"
       r="2.5"
       fx="4.9929786"
       fy="43.5"
       id="radialGradient3337-2-2"
       xlink:href="#linearGradient3688-166-749-654"
       gradientUnits="userSpaceOnUse"
       gradientTransform="matrix(2.4045407,0,0,0.99999998,41.985755,15.500001)" /><radialGradient
       cx="4.9929786"
       cy="43.5"
       r="2.5"
       fx="4.9929786"
       fy="43.5"
       id="radialGradient3339-1-4"
       xlink:href="#linearGradient3688-166-749-654"
       gradientUnits="userSpaceOnUse"
       gradientTransform="matrix(2.4045407,0,0,0.99999998,-22.014244,-102.5)" /><linearGradient
       x1="25.058096"
       y1="47.027729"
       x2="25.058096"
       y2="39.999443"
       id="linearGradient6394"
       xlink:href="#linearGradient3702-501-757-795"
       gradientUnits="userSpaceOnUse"
       gradientTransform="matrix(1.5714286,0,0,0.7142857,-5.7142853,27.928572)" /><linearGradient
       xlink:href="#linearGradient947"
       id="linearGradient899"
       x1="31.781376"
       y1="4.9266648"
       x2="31.781376"
       y2="59.148476"
       gradientUnits="userSpaceOnUse" /><linearGradient
       id="linearGradient947"><stop
         id="stop943"
         style="stop-color:#64baff;stop-opacity:1"
         offset="0" /><stop
         id="stop945"
         style="stop-color:#3689e6;stop-opacity:1"
         offset="1" /></linearGradient></defs><metadata
     id="metadata4337"><rdf:RDF><cc:Work
         rdf:about=""><dc:format>image/svg+xml</dc:format><dc:type
           rdf:resource="http://purl.org/dc/dcmitype/StillImage" /></cc:Work></rdf:RDF></metadata><g
     id="g866"><rect
       style="opacity:0.6;fill:url(#radialGradient3337-2-2);fill-opacity:1;stroke:none;stroke-width:1.06199"
       id="rect2801-5-5-7-9"
       y="56.5"
       x="54"
       height="5"
       width="6" /><rect
       style="opacity:0.6;fill:url(#radialGradient3339-1-4);fill-opacity:1;stroke:none;stroke-width:1.06199"
       id="rect3696-3-0-3-7"
       transform="scale(-1)"
       y="-61.5"
       x="-10"
       height="5"
       width="6" /><rect
       style="opacity:0.6;fill:url(#linearGradient6394);fill-opacity:1;stroke:none;stroke-width:1.06199"
       id="rect3700-5-6-8-4"
       y="56.5"
       x="10"
       height="5.0000005"
       width="44" /></g><rect
     width="55"
     height="55"
     rx="6"
     ry="6"
     x="4.5"
     y="4.5"
     id="rect5505-21-3-8-5-2-9"
     style="color:#000000;display:inline;overflow:visible;visibility:visible;fill:url(#linearGradient899);fill-opacity:1;fill-rule:nonzero;stroke:#002e99;stroke-width:1;marker:none;enable-background:accumulate;stroke-opacity:0.5" /><rect
     style="opacity:0.3;fill:none;stroke:url(#linearGradient3904);stroke-width:1;stroke-linecap:round;stroke-linejoin:round;stroke-miterlimit:4;stroke-dasharray:none;stroke-dashoffset:0;stroke-opacity:1"
     id="rect6741"
     y="5.428761"
     x="5.5"
     ry="5"
     rx="5"
     height="53.142479"
     width="53" /><path
     id="rect6885-0-7-1"
     style="color:#000000;clip-rule:nonzero;display:inline;overflow:visible;visibility:visible;opacity:0.15;isolation:auto;mix-blend-mode:normal;color-interpolation:sRGB;color-interpolation-filters:linearRGB;solid-color:#000000;solid-opacity:1;fill:#002e99;fill-opacity:1;fill-rule:nonzero;stroke:none;stroke-width:1;stroke-linecap:butt;stroke-linejoin:miter;stroke-miterlimit:4;stroke-dasharray:none;stroke-dashoffset:0;stroke-opacity:1;marker:none;color-rendering:auto;image-rendering:auto;shape-rendering:auto;text-rendering:auto;enable-background:accumulate"
     d="m 30.054688,14.011719 c -1.357287,-1.1e-4 -2.220894,1.425312 -2.044922,2.679297 0,3.326302 0,6.652604 0,9.978906 -1.188686,-0.931742 -2.24816,-2.047526 -3.519131,-2.863081 -1.785427,-0.963615 -4.145345,0.55277 -4.176182,2.538862 -0.124931,1.274411 0.777243,2.304727 1.737044,3.008009 1.391689,1.217382 2.783377,2.434765 4.175065,3.652147 -1.753927,1.580814 -3.60589,3.062517 -5.300781,4.703125 -1.235808,1.472531 -0.500244,3.949747 1.292969,4.583985 1.207016,0.530439 2.560583,-0.02625 3.411405,-0.940345 0.793204,-0.670927 1.586407,-1.341853 2.379611,-2.01278 0.01981,3.59856 -0.03945,7.200245 0.0293,10.796875 0.140286,1.213174 1.356798,2.070465 2.546282,1.856398 1.669941,0.0076 2.670749,-1.528056 3.861055,-2.456179 2.477538,-2.248781 5.027154,-4.424093 7.459851,-6.718579 1.110673,-1.374609 0.753058,-3.559962 -0.699993,-4.546635 -1.999742,-1.755288 -3.999484,-3.510576 -5.999226,-5.265865 2.224006,-1.989211 4.525581,-3.898234 6.701172,-5.9375 1.076693,-1.34299 0.778225,-3.475255 -0.618557,-4.47749 -3.044718,-2.686877 -6.02548,-5.453675 -9.109958,-8.090869 -0.631012,-0.394642 -1.391994,-0.515863 -2.125,-0.488281 z m 5.236328,11.101562 c -1.09375,0.916667 -2.1875,1.833334 -3.28125,2.75 0,-1.880859 0,-3.761719 0,-5.642578 1.09375,0.964193 2.1875,1.928386 3.28125,2.892578 z m 0,15.785157 c -1.09375,0.964192 -2.1875,1.928385 -3.28125,2.892578 0,-1.88086 0,-3.761719 0,-5.642578 1.09375,0.916666 2.1875,1.833333 3.28125,2.75 z" /><path
     d="m 30.153991,15.005581 c -0.712286,0 -1.137146,0.573473 -1.145134,1.285714 v 12.535714 l -4.560223,-3.857143 c -0.804549,-0.703157 -1.948757,-0.563451 -2.651786,0.241072 -0.703028,0.804548 -0.643834,2.029088 0.160714,2.732143 l 5.785715,5.0625 -5.785715,5.0625 c -0.804548,0.703031 -0.863742,1.927599 -0.160714,2.732143 0.703029,0.804543 1.847237,0.944102 2.651786,0.241071 l 4.560223,-3.857143 v 12.535715 c 0,0.712285 0.432848,1.285714 1.145134,1.285714 0.726223,0 1.125,-0.05022 1.6875,-0.482143 l 9.080357,-8.116071 c 0.288797,-0.256912 0.466586,-0.618995 0.5625,-0.964286 0.03651,-0.131966 0.07277,-0.265757 0.08023,-0.401786 0.01029,-0.108 0.0077,-0.213428 0,-0.321428 -0.01543,-0.137855 -0.03497,-0.268843 -0.08023,-0.401786 -0.099,-0.344469 -0.27144,-0.709972 -0.5625,-0.964286 l -7.232143,-6.348214 7.232143,-6.348215 c 0.29106,-0.254332 0.463577,-0.619841 0.5625,-0.964285 0.04526,-0.133064 0.06531,-0.263945 0.08023,-0.401786 0.0077,-0.107972 0.01029,-0.213452 0,-0.321429 -0.0077,-0.136062 -0.04371,-0.269839 -0.08023,-0.401785 -0.09591,-0.345307 -0.273703,-0.707388 -0.5625,-0.964286 l -9.080357,-8.116072 c -0.51246,-0.413954 -1.099157,-0.482142 -1.6875,-0.482142 z m 0.854866,4.999997 5.814777,5.125003 -5.814777,4.874997 z m 0,16 5.814777,4.875003 -5.814777,5.124996 z"
     id="rect6885-0-7"
     style="color:#000000;clip-rule:nonzero;display:inline;overflow:visible;visibility:visible;opacity:0.3;isolation:auto;mix-blend-mode:normal;color-interpolation:sRGB;color-interpolation-filters:linearRGB;solid-color:#000000;solid-opacity:1;fill:#002e99;fill-opacity:1;fill-rule:nonzero;stroke:none;stroke-width:1;stroke-linecap:butt;stroke-linejoin:miter;stroke-miterlimit:4;stroke-dasharray:none;stroke-dashoffset:0;stroke-opacity:1;marker:none;color-rendering:auto;image-rendering:auto;shape-rendering:auto;text-rendering:auto;enable-background:accumulate" /><path
     d="m 30.153991,14.005582 c -0.712286,0 -1.137146,0.573473 -1.145134,1.285714 V 27.82701 l -4.560223,-3.857143 c -0.804549,-0.703157 -1.948757,-0.563451 -2.651786,0.241072 -0.703028,0.804548 -0.643834,2.029088 0.160714,2.732143 l 5.785715,5.0625 -5.785715,5.0625 c -0.804548,0.703031 -0.863742,1.927599 -0.160714,2.732143 0.703029,0.804543 1.847237,0.944102 2.651786,0.241071 l 4.560223,-3.857143 v 12.535715 c 0,0.712285 0.432848,1.285714 1.145134,1.285714 0.726223,0 1.125,-0.05022 1.6875,-0.482143 l 9.080357,-8.116071 c 0.288797,-0.256912 0.466586,-0.618995 0.5625,-0.964286 0.03651,-0.131966 0.07277,-0.265757 0.08023,-0.401786 0.01029,-0.108 0.0077,-0.213428 0,-0.321428 -0.01543,-0.137855 -0.03497,-0.268843 -0.08023,-0.401786 -0.099,-0.344469 -0.27144,-0.709972 -0.5625,-0.964286 l -7.232143,-6.348214 7.232143,-6.348215 c 0.29106,-0.254332 0.463577,-0.619841 0.5625,-0.964285 0.04526,-0.133064 0.06531,-0.263945 0.08023,-0.401786 0.0077,-0.107972 0.01029,-0.213452 0,-0.321429 -0.0077,-0.136062 -0.04371,-0.269839 -0.08023,-0.401785 -0.09591,-0.345307 -0.273703,-0.707388 -0.5625,-0.964286 l -9.080357,-8.116072 c -0.51246,-0.413954 -1.099157,-0.482142 -1.6875,-0.482142 z m 0.854866,4.999997 5.814777,5.125003 -5.814777,4.874997 z m 0,16 5.814777,4.875003 -5.814777,5.124996 z"
     id="rect6885-0"
     style="color:#bebebe;display:inline;overflow:visible;visibility:visible;fill:#ffffff;fill-opacity:1;fill-rule:nonzero;stroke:none;stroke-width:2.344;marker:none;enable-background:accumulate" /><path
     id="rect6885-0-79"
     style="color:#bebebe;display:inline;overflow:visible;visibility:visible;fill:#002e99;fill-opacity:1;fill-rule:nonzero;stroke:none;stroke-width:1;marker:none;enable-background:accumulate;font-variation-settings:normal;opacity:0.15;vector-effect:none;stroke-linecap:butt;stroke-linejoin:miter;stroke-miterlimit:4;stroke-dasharray:none;stroke-dashoffset:0;stroke-opacity:1;-inkscape-stroke:none;stop-color:#000000;stop-opacity:1"
     d="M 31.009766 18.005859 L 31.009766 19.005859 L 36.242188 23.619141 L 36.824219 23.130859 L 31.009766 18.005859 z M 41.5 23.630859 C 41.494069 23.651636 41.491466 23.672511 41.484375 23.693359 C 41.385452 24.037803 41.212935 24.403871 40.921875 24.658203 L 33.689453 31.005859 L 34.259766 31.505859 L 40.921875 25.658203 C 41.212935 25.403871 41.385452 25.037803 41.484375 24.693359 C 41.529635 24.560296 41.549533 24.428856 41.564453 24.291016 C 41.572153 24.183044 41.574743 24.07868 41.564453 23.970703 C 41.55796 23.855959 41.530088 23.742625 41.5 23.630859 z M 21.378906 25.017578 C 21.202585 25.699784 21.39184 26.449466 21.957031 26.943359 L 27.171875 31.505859 L 27.744141 31.005859 L 21.957031 25.943359 C 21.665294 25.688424 21.473832 25.364762 21.378906 25.017578 z M 31.009766 34.005859 L 31.009766 35.005859 L 36.242188 39.392578 L 36.824219 38.880859 L 31.009766 34.005859 z M 29.009766 35.185547 L 24.449219 39.041016 C 23.644671 39.744046 22.499903 39.605323 21.796875 38.800781 C 21.587722 38.561427 21.453578 38.283054 21.378906 37.994141 C 21.212049 38.604413 21.348773 39.287974 21.796875 39.800781 C 22.499903 40.605323 23.644671 40.744046 24.449219 40.041016 L 29.009766 36.183594 L 29.009766 35.185547 z M 41.5 39.380859 C 41.494402 39.401627 41.490095 39.422683 41.484375 39.443359 C 41.388461 39.78865 41.210672 40.151291 40.921875 40.408203 L 31.841797 48.523438 C 31.279297 48.95536 30.880519 49.005859 30.154297 49.005859 C 29.442012 49.005859 29.009766 48.432987 29.009766 47.720703 L 29.009766 48.720703 C 29.009766 49.432987 29.442012 50.005859 30.154297 50.005859 C 30.880519 50.005859 31.279297 49.95536 31.841797 49.523438 L 40.921875 41.408203 C 41.210672 41.151291 41.388461 40.78865 41.484375 40.443359 C 41.520885 40.311394 41.556993 40.177044 41.564453 40.041016 C 41.574743 39.933016 41.572153 39.828703 41.564453 39.720703 C 41.551441 39.604447 41.531819 39.492639 41.5 39.380859 z " /><path
     id="rect6885-0-5"
     style="color:#bebebe;display:inline;overflow:visible;visibility:visible;fill:#002e99;fill-opacity:1;fill-rule:nonzero;stroke:none;stroke-width:1;marker:none;enable-background:accumulate;font-variation-settings:normal;opacity:0.07;vector-effect:none;stroke-linecap:butt;stroke-linejoin:miter;stroke-miterlimit:4;stroke-dasharray:none;stroke-dashoffset:0;stroke-opacity:1;-inkscape-stroke:none;stop-color:#000000;stop-opacity:1"
     d="M 32.009766 18.220703 L 32.009766 19.886719 L 34.322266 21.925781 L 35.291016 21.113281 L 32.009766 18.220703 z M 41.455078 23.482422 C 39.41353 25.366069 37.278466 27.153112 35.207031 29.005859 L 36.158203 29.839844 L 40.921875 25.658203 C 41.212935 25.403871 41.385452 25.037803 41.484375 24.693359 C 41.529635 24.560296 41.549533 24.428856 41.564453 24.291016 C 41.572153 24.183044 41.574743 24.07868 41.564453 23.970703 C 41.556753 23.834641 41.520895 23.700305 41.484375 23.568359 C 41.476436 23.539778 41.464155 23.511164 41.455078 23.482422 z M 21.431641 24.833984 C 21.165566 25.561382 21.340697 26.404775 21.957031 26.943359 L 25.273438 29.845703 C 25.592491 29.567369 25.912336 29.289072 26.226562 29.005859 L 22.050781 25.353516 C 21.837286 25.19708 21.628763 25.02187 21.431641 24.833984 z M 32.009766 34.148438 L 32.009766 35.84375 L 34.304688 37.767578 L 35.291016 36.898438 L 32.009766 34.148438 z M 28.009766 35.339844 L 25.630859 37.353516 C 24.780038 38.26761 23.425765 38.823407 22.21875 38.292969 C 21.926361 38.189554 21.665783 38.032816 21.433594 37.84375 C 21.197191 38.490079 21.31115 39.244919 21.796875 39.800781 C 22.499903 40.605323 23.644671 40.744046 24.449219 40.041016 L 28.007812 37.03125 C 28.007794 36.467389 28.012869 35.903583 28.009766 35.339844 z M 41.455078 39.234375 C 39.158399 41.375524 36.77328 43.425861 34.447266 45.537109 C 33.256961 46.465231 32.255877 47.999787 30.585938 47.992188 C 30.027566 48.092675 29.465926 47.951964 29.009766 47.654297 L 29.009766 48.720703 C 29.009766 49.432987 29.442012 50.005859 30.154297 50.005859 C 30.880519 50.005859 31.279297 49.95536 31.841797 49.523438 L 40.921875 41.408203 C 41.210672 41.151291 41.388461 40.78865 41.484375 40.443359 C 41.520885 40.311394 41.556993 40.177044 41.564453 40.041016 C 41.574743 39.933016 41.572153 39.828703 41.564453 39.720703 C 41.549023 39.582848 41.529635 39.451302 41.484375 39.318359 C 41.476348 39.290428 41.464095 39.262512 41.455078 39.234375 z " /></svg>
